<?xml version="1.0" encoding="UTF-8"?>
<svg width="300px" height="50px" viewBox="0 0 300 50" version="1.1" xmlns="http://www.w3.org/2000/svg" xmlns:xlink="http://www.w3.org/1999/xlink">
    <title>Jabil-logo</title>
    <g id="Page-1" stroke="none" stroke-width="1" fill="none" fill-rule="evenodd">
        <g id="Jabil-logo" transform="translate(0.000000, 0.480000)" fill-rule="nonzero">
            <g id="XMLID_25_" fill="#163E6A">
                <path d="M12.15,49.04 C7.39,49.04 4.17,48.23 2.5,46.61 C0.84,44.99 0,41.94 0,37.45 L0,27.28 L11.51,25.1 L11.51,39.82 L33.91,39.82 L33.91,-4.4408921e-16 L45.35,-4.4408921e-16 L45.35,37.45 C45.35,41.93 44.5,44.98 42.82,46.61 C41.13,48.23 37.92,49.04 33.17,49.04 L12.15,49.04 Z" id="XMLID_36_"></path>
                <path d="M139.9,49.04 L139.9,-4.4408921e-16 L181.89,-4.4408921e-16 C185.77,-4.4408921e-16 188.57,0.76 190.31,2.28 C192.05,3.8 192.92,6.22 192.92,9.53 L192.92,15.49 C192.92,17.84 192.19,19.71 190.75,21.11 C189.3,22.51 187.22,23.39 184.5,23.73 C187.32,24.1 189.49,25.11 191.03,26.75 C192.56,28.39 193.33,30.53 193.33,33.16 L193.33,39.44 C193.33,42.69 192.13,45.1 189.74,46.68 C187.35,48.26 183.72,49.05 178.84,49.05 L139.9,49.05 L139.9,49.04 Z M177.11,8 L151.13,8 L151.13,19.64 L177.11,19.64 C179.09,19.64 180.45,19.38 181.21,18.85 C181.97,18.33 182.34,17.42 182.34,16.13 L182.34,11.52 C182.34,10.26 181.96,9.36 181.21,8.82 C180.45,8.27 179.09,8 177.11,8 M177.11,27.72 L151.13,27.72 L151.13,40.23 L177.11,40.23 C179.29,40.23 180.77,39.91 181.53,39.25 C182.29,38.6 182.68,37.45 182.68,35.81 L182.68,32.09 C182.68,30.45 182.3,29.31 181.53,28.67 C180.77,28.03 179.3,27.72 177.11,27.72" id="XMLID_29_"></path>
                <rect id="XMLID_28_" x="215.31" y="-4.4408921e-16" width="11.44" height="49.04"></rect>
                <polygon id="XMLID_27_" points="251.76 49.04 251.76 -4.4408921e-16 263.2 -4.4408921e-16 263.2 39.82 300 39.82 300 49.04"></polygon>
            </g>
            <g id="Group" transform="translate(57.310000, 0.000000)" fill="#163E6A">
                <polygon id="Path" points="45.55 33.32 54.01 49.04 66.81 49.04 56.22 30.56"></polygon>
                <polygon id="Path" points="32.83 9.51 39.7 22.49 51.6 22.5 38.71 -4.4408921e-16 27.73 -4.4408921e-16 0 49.04 11.36 49.04"></polygon>
            </g>
            <polygon id="XMLID_26_" fill="#54C0E8" points="83.04 22.48 72.95 41.08 144.56 22.51"></polygon>
        </g>
    </g>
</svg>