<svg xmlns="http://www.w3.org/2000/svg" xmlns:xlink="http://www.w3.org/1999/xlink" width="228.3" height="148.5" viewBox="0 0 228.3 148.5">
	<path fill="#F47920" d="M198.3,25.1L114.1,4.2L29.9,25.1C2.5,31.8,4.2,60.7,4.2,74.2c0,13.5-1.7,42.4,25.8,49.1l84.2,20.9l84.2-20.9   c27.5-6.7,25.8-35.7,25.8-49.1C224.1,60.7,225.8,31.8,198.3,25.1z"/>
	<path fill="#FFFFFF" d="M114.1,148.4L29,127.3C-0.3,120.2-0.1,90.6,0,76.4c0-0.8,0-1.5,0-2.2s0-1.4,0-2.2c-0.1-14.2-0.3-43.8,29-50.9   l85.2-21.1l85.2,21.1c29.2,7.2,29,36.7,28.9,50.9c0,0.8,0,1.5,0,2.2s0,1.4,0,2.2c0.1,14.2,0.3,43.8-28.9,50.9L114.1,148.4z    M114.1,8.5L30.9,29.1C9.8,34.3,8.2,53.9,8.3,71.9c0,0.8,0,1.5,0,2.3c0,0.7,0,1.5,0,2.3c-0.1,18,1.5,37.7,22.7,42.8l83.2,20.6   l83.2-20.6c21.1-5.2,22.8-24.8,22.7-42.8c0-0.8,0-1.5,0-2.3s0-1.5,0-2.3c0.1-18-1.5-37.7-22.6-42.8l0,0L114.1,8.5z"/>
	<path fill="#F47920" d="M198.3,25.1L114.1,4.2L29.9,25.1C2.5,31.8,4.2,60.7,4.2,74.2c0,13.5-1.7,42.4,25.8,49.1l84.2,20.9l84.2-20.9   c27.5-6.7,25.8-35.7,25.8-49.1C224.1,60.7,225.8,31.8,198.3,25.1z"/>
	<path fill="#ED1C24" d="M31.6,116.9c-18.8-4.6-20.8-21.5-20.8-38.8v-1.6l0-2.3l0-2.3v-1.6c0-17.3,2-34.2,20.7-38.8   c0,0,70.9-17.6,82.6-20.4c3.1,0.8,82.6,20.4,82.6,20.4c18.7,4.6,20.7,21.5,20.7,38.8c0,0.5,0,1.1,0,1.6l0,2.3l0,2.3   c0,0.5,0,1.1,0,1.6c0,17.3-2,34.2-20.7,38.8c0,0-70.9,17.6-82.6,20.5C111,136.6,31.6,116.9,31.6,116.9z"/>
	<path fill="#FFF200" d="M113.8,9.8L31.3,30.3c-20,4.9-21.7,23.2-21.7,40v1.6c0,0,0,2.3,0,2.3l0,2.3v1.6c0,16.8,1.7,35.1,21.7,40   l82.8,20.5c0,0,82.9-20.5,82.9-20.5c20-4.9,21.7-23.2,21.7-40l0-3.9l0-3.9c0-16.8-1.7-35.1-21.7-40L114.1,9.8L113.8,9.8z    M31.9,115.7c-18.3-4.5-19.8-21.1-19.8-37.7v-7.7c0-16.6,1.5-33.2,19.8-37.7c0,0,81.7-20.2,82.3-20.4c0.6,0.2,82.3,20.4,82.3,20.4   c18.3,4.5,19.8,21.1,19.8,37.7l0,3.9l0,3.9c0,16.6-1.5,33.2-19.8,37.7c0,0-77,19.1-82.3,20.4C113.5,135.9,31.9,115.7,31.9,115.7z"/>
	<path fill="#8B0203" d="M87.5,41.9c1.1-2.8,1.2-2.7,3.1-2.7c2,0,5.1,0,5.9,0c2.8,0,1,1.7,0,5.9c-0.7,2.9-1.4,5.1-1.7,7.4   c0,0,6.3,0,8.2,0c2.3,0,3.7,1.2,4,3.4c0.3,2,0.5,2.7-1.1,2.7c-0.8,0-11.7,0-11.7,0s-0.3,5.3,1.3,8.7c3.2,7,9.1,13.3,21.3,12.9   c5.6-0.2-2.1,4.9-11.3,4.9c-5.1,0-14.7-1.1-19.4-11.9c0,0-7.3,13.2-21.5,10.3c-0.3,0-0.4-0.5,0.1-0.7c1.9-0.9,6.3-3.8,8.9-7.1   c5.8-7.3,7.6-12,9.2-17l-10.6,0c-1.5,0,0.4-6.1,3.5-6.1h9C84.3,52.6,85.8,46.4,87.5,41.9z"/>
	<path fill="#8B0203" d="M135.1,48.5c-0.6-2.8-0.8-4.7,0.6-4.7c0.3,0,7.2,0,9.1,0c0.9,0,1.1,1.1,1.4,2.3c0.4,1.2,0.6,2.4,0.6,2.4h6.5   c0.6,0,0.9,0.5,1.5,1.4c1.2,1.8,0.9,3.3,0.2,3.3h-7c-0.4,0,0.1,2.2,0.6,2.2c1.1,0,7.4,0,7.9,0c1.7,0,0,3.6-0.8,5.6   c-1.7,3.8-2.9,5-2.9,5s2.1,5.7,5.7,9.3c3.4,3.4,4.1,3.5,7.2,5.5c1.5,0.9,0.8,1-0.7,1.9c-1.9,1.2-5.2,1.9-8.9,0.7   c-7.4-2.2-10.7-8.8-10.7-8.8s-5.8,6.6-6.6,6.6c-3.2,0-8.8,0-10.9,0c-0.8,0-0.3-0.9,0.6-1.7c1.6-1.3,6.4-6.4,8-8.2   c2.8-3.1,4.1-5.5,4.1-5.5c-0.3-1.1-3.3-7.7-4.3-12.2l-9.4,0c-1,0-1.1,0.9-2,4.2c-0.1,0.4,1,0.5,3,0.5c0.6,0,3.5,0,4.6,0   c1.7,0,2.6,1.1,2.3,3.6c-0.8,5.1-2.3,9.9-3.6,12.4c-0.6,1.1-1.2,1.5-2.3,1.5c-1.2,0-4.4,0-5.6,0c-0.4,0-0.6-0.5-0.4-0.9   c1.2-2.7,2.8-7,3.6-9.7c0.1-0.5-0.3-0.6-1-0.6c-0.6,0-1.9-0.2-2.1,0.3c-1.2,3.7-4,10.2-4.8,11.2c-1.1,1.3-1.8,1.4-3.7,1.4   c-1.1,0-4.9,0-6.4,0c-0.2,0-0.5-0.7-0.3-1.1c0.4-0.7,0.8-1.4,1.5-3c1.5-3.7,3.9-10.1,5.2-15.6c1.6-7,5.2-9.1,7.7-9.1   C124.9,48.5,135.1,48.5,135.1,48.5z"/>
	<path fill="#8B0203" d="M155.6,35.4c0.7-1.2,1.8-1.5,2.9-1.5c1.1,0,4,0,4.4,0c1.7,0-0.1,1.4-1.5,4c-1.3,2.3-3.1,5.7-4.3,6.6   c-0.8,0.6-2.6,0.4-7.3,0.4c-1,0,0.4-1.4,1.5-2.9C152.4,40.5,154.9,36.5,155.6,35.4z"/>
	<path fill="#8B0203" d="M86.9,92.3c-1.3-2.3-4-3.7-7.4-3.7H74l-0.3,0l-7,19.5h3.9c0,0,5.5-15.4,5.8-16.1c0.5,0,1.4,0,1.4,0   c2.6,0,4.6,0.9,5.5,2.4c0.6,1,0.6,2.4,0.1,3.8c-1.3,3.7-5.4,6.5-9.4,6.5h-1.5l-1.2,3.4l1.6,0c6.1,0,12.5-4.2,14.4-9.6   C87.9,96.2,87.9,94,86.9,92.3z"/>
	<path fill="#8B0203" d="M98.2,93c-4.7,0-9.1,3-10.7,7.4c-0.7,2-0.7,4,0.1,5.4c0.9,1.6,2.7,2.5,5,2.5c2.1,0,3.5-0.5,4.4-1.2l1.6-4.4   l-0.5,0.4c-1,0.8-2.5,1.8-4.1,1.8c-1.3,0-2.3-0.5-2.8-1.3c-0.4-0.7-0.4-1.6-0.1-2.7c0.8-2.2,3.2-4.4,6.1-4.4c1.5,0,2.6,0.5,3.1,1.3   c0.3,0.5,0.3,1.2,0,1.9l-3,8.4h3.7l2.8-7.9c0.7-1.8,0.6-3.5-0.1-4.7C102.9,93.9,101,93,98.2,93z"/>
	<path fill="#8B0203" d="M113.8,104.7c-1.6,0-3.7-0.6-4.6-2.3c-0.6-1.1-0.6-2.4,0-3.9c1.3-3.7,5.9-6.5,10.6-6.5l2.3,0l1.2-3.4h-0.6   h-2.3c-7.3,0-13.5,4.9-15.1,9.6c-0.9,2.4-0.8,4.5,0.2,6.3c1.3,2.3,4,3.6,7.4,3.6h3.4l1.2-3.4L113.8,104.7z"/>
	<path fill="#8B0203" d="M134.1,94.9c-0.7-1.3-2.2-1.9-4.6-1.9c-1.2,0-2.4,0.3-3.5,0.9c0.6-1.6,1.9-5.3,1.9-5.3h-0.6h-3.1l-7,19.4   l3.7,0l3-8.4c0.6-1.8,2.6-3.2,4.4-3.2c1.1,0,1.8,0.3,2.1,0.8c0.3,0.5,0.2,1.2-0.1,2.1l-3.1,8.7l3.7,0l3-8.4   C134.7,97.7,134.7,96.1,134.1,94.9z"/>
	<path fill="#8B0203" d="M165.7,95.3c-0.8-1.4-2.4-2.2-4.5-2.2c-3.9,0-7.6,2.6-9,6.4l-3.1,8.7l3.7,0l3-8.4c0.7-1.8,2.6-3.2,4.4-3.2   c0.9,0,1.6,0.4,1.9,1c0.3,0.5,0.3,1.2,0,2l-3.1,8.7l3.7,0l3-8.4C166.4,98,166.4,96.5,165.7,95.3z"/>
	<path fill="#8B0203" d="M145.2,93.1c-4.7,0-9.1,3-10.7,7.4c-0.7,2-0.7,3.9,0.1,5.4c0.9,1.6,2.6,2.5,5,2.5c2.1,0,3.5-0.5,4.4-1.2   l1.6-4.4l-0.5,0.4c-1,0.8-2.5,1.8-4.1,1.8c-1.3,0-2.3-0.5-2.8-1.3c-0.4-0.7-0.4-1.7-0.1-2.7c0.8-2.2,3.2-4.4,6.2-4.4   c1.5,0,2.6,0.5,3.1,1.3c0.3,0.5,0.3,1.2,0,1.9l-3,8.4h3.7l2.8-7.9c0.7-1.8,0.7-3.5,0-4.7C149.8,93.9,147.9,93.1,145.2,93.1z"/>
	<path fill="#FFFFFF" d="M85.3,39.1c1.1-2.8,1.2-2.7,3.1-2.7c1.9,0,5.1,0,5.9,0c2.8,0,1,1.7,0,6c-0.7,2.9-1.4,5.1-1.7,7.3   c0,0,6.3,0,8.2,0c2.3,0,3.7,1.2,4,3.4c0.3,2,0.5,2.7-1.1,2.7H91.9c0,0-0.3,5.3,1.3,8.7c3.2,7,9.1,13.3,21.3,12.9   c5.6-0.2-2.1,4.9-11.3,4.9c-5.1,0-14.7-1.1-19.5-11.9c0,0-7.3,13.2-21.5,10.3c-0.3,0-0.4-0.5,0.1-0.7c1.9-0.9,6.3-3.8,8.9-7.1   c5.8-7.3,7.6-12,9.2-17l-10.6,0c-1.5,0,0.4-6.1,3.4-6.1c2.8,0,9,0,9,0S83.7,43.5,85.3,39.1z"/>
	<path fill="#FFFFFF" d="M133,45.7c-0.6-2.8-0.8-4.7,0.6-4.7c0.3,0,7.2,0,9.1,0c0.9,0,1,1.1,1.4,2.3c0.4,1.2,0.6,2.4,0.6,2.4h6.5   c0.6,0,0.9,0.5,1.5,1.4c1.2,1.8,0.9,3.3,0.2,3.3h-7c-0.3,0,0.1,2.2,0.6,2.2c1.1,0,7.4,0,7.9,0c1.7,0,0,3.6-0.8,5.6   c-1.7,3.8-2.9,5-2.9,5s2.1,5.7,5.7,9.3c3.4,3.4,4.1,3.5,7.2,5.5c1.5,1,0.8,1-0.7,1.9c-1.9,1.2-5.2,1.8-8.9,0.7   c-7.4-2.2-10.7-8.8-10.7-8.8s-5.8,6.6-6.6,6.6c-3.2,0-8.8,0-10.9,0c-0.8,0-0.3-0.9,0.6-1.6c1.6-1.3,6.4-6.4,8-8.2   c2.8-3.1,4.1-5.6,4.1-5.6c-0.3-1.1-3.3-7.7-4.3-12.2l-9.4,0c-1.1,0-1.1,0.9-2,4.2c-0.1,0.4,1,0.5,3.1,0.5c0.6,0,3.5,0,4.6,0   c1.7,0,2.7,1.1,2.3,3.6c-0.8,5.1-2.3,9.9-3.6,12.4c-0.6,1.1-1.2,1.5-2.3,1.5c-1.2,0-4.4,0-5.6,0c-0.4,0-0.6-0.5-0.4-0.9   c1.2-2.7,2.8-7,3.6-9.7c0.1-0.5-0.3-0.6-1.1-0.6c-0.6,0-1.9-0.2-2.1,0.3c-1.2,3.7-4,10.2-4.8,11.1c-1.2,1.3-1.8,1.4-3.7,1.4   c-1.1,0-4.9,0-6.3,0c-0.3,0-0.6-0.7-0.3-1.1c0.4-0.7,0.8-1.4,1.5-3c1.5-3.7,3.9-10,5.1-15.6c1.6-7,5.2-9.1,7.7-9.1   C122.7,45.7,133,45.7,133,45.7z"/>
	<path fill="#FFFFFF" d="M153.4,32.6c0.7-1.2,1.8-1.5,2.9-1.5c1.1,0,4,0,4.4,0c1.7,0-0.1,1.4-1.5,4c-1.3,2.3-3.1,5.7-4.3,6.6   c-0.8,0.6-2.6,0.4-7.3,0.4c-1,0,0.4-1.4,1.5-2.9C150.3,37.6,152.7,33.7,153.4,32.6z"/>
	<path fill="#FFFFFF" d="M84.7,89.4c-1.3-2.3-4-3.7-7.4-3.7h-5.5l-0.3,0l-7,19.5l3.9,0c0,0,5.5-15.4,5.8-16.1c0.5,0,1.4,0,1.4,0   c2.6,0,4.6,0.9,5.5,2.4c0.6,1,0.6,2.3,0.1,3.8c-1.3,3.7-5.4,6.5-9.4,6.5h-1.5l-1.2,3.4l1.6,0c6.2,0,12.5-4.2,14.4-9.6   C85.8,93.4,85.7,91.2,84.7,89.4z"/>
	<path fill="#FFFFFF" d="M96.1,90.2c-4.7,0-9.1,3-10.7,7.4c-0.7,2-0.7,4,0.1,5.4c0.9,1.6,2.7,2.5,5,2.5c2,0,3.5-0.5,4.4-1.2l1.6-4.4   l-0.5,0.4c-1,0.8-2.5,1.8-4.2,1.8c-1.3,0-2.3-0.5-2.8-1.3c-0.4-0.7-0.4-1.7-0.1-2.7c0.8-2.2,3.2-4.4,6.2-4.4c1.5,0,2.6,0.5,3,1.3   c0.3,0.5,0.3,1.2,0,1.9l-3,8.4h3.7l2.8-7.9c0.7-1.8,0.6-3.5-0.1-4.7C100.7,91,98.8,90.2,96.1,90.2z"/>
	<path fill="#FFFFFF" d="M111.7,101.9c-1.6,0-3.7-0.6-4.6-2.3c-0.6-1.1-0.6-2.4,0-3.9c1.3-3.7,5.9-6.5,10.6-6.5l2.3,0l1.2-3.4h-0.6   h-2.3c-7.3,0-13.4,4.9-15.1,9.6c-0.9,2.4-0.8,4.5,0.2,6.3c1.3,2.3,4,3.6,7.4,3.6l3.4,0l1.2-3.4L111.7,101.9z"/>
	<path fill="#FFFFFF" d="M132,92.1c-0.7-1.3-2.2-1.9-4.6-1.9c-1.2,0-2.4,0.3-3.5,0.9c0.6-1.6,1.9-5.3,1.9-5.3l-0.6,0h-3.1l-7,19.4h3.7   l3-8.4c0.7-1.8,2.6-3.2,4.4-3.2c1.1,0,1.8,0.3,2.1,0.8c0.3,0.5,0.2,1.2-0.1,2.1l-3.1,8.7l3.7,0l3-8.4   C132.5,94.8,132.6,93.2,132,92.1z"/>
	<path fill="#FFFFFF" d="M163.6,92.4c-0.8-1.4-2.4-2.2-4.5-2.2c-3.9,0-7.6,2.6-9,6.4l-3.1,8.7l3.7,0l3-8.4c0.7-1.8,2.6-3.2,4.4-3.2   c0.9,0,1.6,0.4,1.9,1c0.3,0.5,0.3,1.2,0,2l-3.1,8.7l3.7,0l3-8.4C164.2,95.2,164.2,93.6,163.6,92.4z"/>
	<path fill="#FFFFFF" d="M143.1,90.2c-4.7,0-9.1,3-10.7,7.4c-0.7,2-0.7,3.9,0.1,5.4c0.9,1.6,2.6,2.5,4.9,2.5c2.1,0,3.5-0.5,4.4-1.2   l1.6-4.4l-0.5,0.4c-1,0.8-2.5,1.8-4.1,1.8c-1.3,0-2.3-0.5-2.8-1.4c-0.4-0.7-0.4-1.7-0.1-2.7c0.8-2.2,3.2-4.4,6.2-4.4   c1.5,0,2.6,0.5,3.1,1.3c0.3,0.5,0.3,1.2,0,1.9l-3,8.4h3.7l2.8-7.9c0.7-1.8,0.6-3.5,0-4.7C147.7,91.1,145.8,90.2,143.1,90.2z"/>
	<path fill="#FFFFFF" d="M73.3,114.7c-1-0.7-1.6-1.1-3-1.1c-2.3,0-4.3,1.3-4.7,2.9c-0.4,1.6,0.9,2.9,3.2,2.9c2,0,3.9-0.9,4.4-2.4h-3.6   l0.2-0.9h5l-0.2,0.6c-0.6,2.4-3.7,3.6-6.2,3.6c-2.9,0-4.9-1.7-4.4-3.8c0.6-2.1,3.5-3.8,6.4-3.8c1.7,0,2.8,0.3,3.9,1.3L73.3,114.7z"/>
	<path fill="#FFFFFF" d="M75.9,115.1h1.2l-0.2,0.6h0c0.6-0.5,1.2-0.7,2.1-0.7h0.3l-0.2,0.9H79c-1.3,0-2.1,0.5-2.5,1.9l-0.6,2.4h-1.3   L75.9,115.1z"/>
	<path fill="#FFFFFF" d="M80.9,118.4l-0.3-0.7l3.9-1.4c-0.4-0.3-0.7-0.5-1.5-0.5c-1.3,0-2.5,0.7-2.8,1.7c-0.3,1,0.5,1.8,1.8,1.8   c1.5,0,2.3-0.7,2.8-1.6l1.3,0.1c-0.5,1.3-2.3,2.4-4.3,2.4c-2,0-3.4-1.1-3-2.6c0.4-1.6,2.4-2.6,4.4-2.6c1.6,0,2.6,0.6,3,1.6   L80.9,118.4z"/>
	<path fill="#FFFFFF" d="M91.9,120.1l0.8-2.8c0.3-0.9-0.7-1.4-1.9-1.4c-1.4,0-2.5,0.8-2.8,1.8c-0.3,0.9,0.5,1.7,1.9,1.7   c0.7,0,1.4-0.3,2-0.7l-0.3,1.1c-0.6,0.3-1.1,0.5-2,0.5c-2,0-3.2-1.2-2.8-2.7c0.4-1.4,2.1-2.6,4.3-2.6c2.2,0,3.3,0.9,2.9,2.4   l-0.7,2.8H91.9z"/>
	<path fill="#FFFFFF" d="M99.3,115.9h-2.5l-0.7,2.7c-0.1,0.5,0.1,0.6,0.8,0.6h1.6l-0.2,0.9h-1.7c-1.3,0-1.9-0.6-1.7-1.6l1.2-4.7h1.3   l-0.3,1.3h2.5L99.3,115.9z"/>
	<path fill="#FFFFFF" d="M109.4,115.1l-0.9,3.4c-0.3,1-1.5,1.7-3,1.7c-0.8,0-1.5-0.2-1.9-0.7c-0.6,0.5-1.5,0.7-2.3,0.7   c-1.4,0-2.3-0.8-2.1-1.7l0.9-3.4h1.3l-0.9,3.2c-0.2,0.6,0.2,1.1,1,1.1c0.8,0,1.5-0.3,1.7-1.2l0.8-3.1h1.3l-0.8,3.1   c-0.2,0.9,0.2,1.2,1.1,1.2c0.8,0,1.4-0.4,1.5-1.1l0.9-3.2H109.4z"/>
	<path fill="#FFFFFF" d="M114.7,120.1l0.8-2.8c0.3-0.9-0.7-1.4-1.9-1.4c-1.4,0-2.5,0.8-2.8,1.8c-0.2,0.9,0.5,1.7,1.8,1.7   c0.7,0,1.4-0.3,2-0.7l-0.3,1.1c-0.6,0.3-1.1,0.5-2,0.5c-2,0-3.2-1.2-2.8-2.7c0.4-1.4,2.1-2.6,4.3-2.6c2.2,0,3.3,0.9,2.9,2.4   l-0.7,2.8H114.7z"/>
	<polygon fill="#FFFFFF" points="117.3,120.1 119.3,112.7 120.6,112.7 118.6,120.1  "/>
	<polygon fill="#FFFFFF" points="120.3,120.1 122.2,112.7 123.5,112.7 121.6,120.1  "/>
	<path fill="#FFFFFF" d="M135.1,114.7c-1-0.7-1.6-1.1-3-1.1c-2.3,0-4.3,1.3-4.7,2.9c-0.4,1.6,0.9,2.9,3.2,2.9c2,0,3.9-0.9,4.4-2.4h-3.6   l0.2-0.9h5l-0.2,0.6c-0.6,2.4-3.7,3.6-6.2,3.6c-2.9,0-4.9-1.7-4.4-3.8c0.6-2.1,3.5-3.8,6.4-3.8c1.7,0,2.8,0.3,3.9,1.3L135.1,114.7z   "/>
	<path fill="#FFFFFF" d="M137.7,115.1h1.2l-0.2,0.6h0c0.6-0.5,1.2-0.7,2.1-0.7h0.3l-0.2,0.9h-0.2c-1.3,0-2.1,0.5-2.5,1.9l-0.6,2.4h-1.3   L137.7,115.1z"/>
	<path fill="#FFFFFF" d="M142,117.6c0.3-1,1.4-1.7,2.8-1.7c1.3,0,2.1,0.7,1.8,1.7c-0.3,1-1.4,1.7-2.8,1.7   C142.5,119.3,141.7,118.6,142,117.6z M140.6,117.6c-0.4,1.6,1,2.6,3,2.6c2,0,4-1.1,4.4-2.6c0.4-1.6-1-2.6-3-2.6   C143.1,114.9,141.1,116,140.6,117.6z"/>
	<path fill="#FFFFFF" d="M155.5,115.1l-0.8,2.9c-0.4,1.3-1.9,2.2-3.6,2.2c-1.7,0-2.8-0.9-2.4-2.2l0.8-2.9h1.3l-0.8,2.9   c-0.2,0.8,0.4,1.3,1.4,1.3c0.9,0,1.9-0.5,2.1-1.3l0.8-2.9H155.5z"/>
	<path fill="#FFFFFF" d="M154.5,122.4l1.2-4.7c0.4-1.7,2.2-2.8,4.3-2.8c2.3,0,3.3,1.3,2.9,2.8c-0.4,1.4-2.3,2.5-4.1,2.5   c-0.7,0-1.4-0.1-1.9-0.4l0.3-1c0.4,0.2,1.1,0.4,1.7,0.4c1.4,0,2.5-0.7,2.8-1.7c0.3-1-0.5-1.8-1.9-1.8c-1.2,0-2.4,0.7-2.8,2.1   l-1.2,4.5H154.5z"/>
</svg>